<svg xmlns="http://www.w3.org/2000/svg" xmlns:v="https://svgstorm.com"
viewBox = "0 0 350 350"
width="350"
height="350">
<g fill="None" fill-opacity="0.0" stroke="#000000" stroke-opacity="0.00" stroke-width="0.3"><path d="
M 0.00 350.00 
L 350.00 350.00
L 350.00 0.00
L 0.00 0.00
L 0.00 350.00
M 164.00 53.00 
C 165.25 53.52 166.06 54.40 167.00 55.00
C 169.64 56.68 173.07 57.56 175.00 60.00
C 180.80 56.78 185.74 51.36 193.00 52.00
C 195.67 51.57 199.87 51.56 203.00 51.00
C 208.53 49.25 213.06 47.06 219.00 46.00
C 223.81 45.14 228.84 44.68 234.00 46.00
C 261.71 53.08 265.69 81.13 268.00 106.00 C 270.31 130.87 254.00 158.49 254.00 184.00
C 254.18 185.84 255.24 188.44 255.00 191.00
C 254.95 191.50 255.00 192.00 255.00 192.00
C 254.57 196.51 255.83 200.51 256.00 205.00
C 256.16 209.27 256.23 213.73 256.00 218.00
C 255.86 220.60 255.27 222.56 255.00 225.00
C 253.56 237.88 251.53 249.71 248.00 262.00
C 242.54 281.01 234.73 295.81 222.00 311.00
C 218.72 314.92 217.35 318.52 212.00 320.00
C 210.67 320.37 208.62 321.87 207.00 320.00
C 204.32 318.61 201.54 313.09 203.00 310.00
C 199.99 309.77 200.19 307.96 199.00 306.00
C 197.98 304.31 198.04 304.22 198.00 303.00
C 197.91 300.23 197.49 297.03 199.00 295.00
C 199.00 294.50 199.00 294.00 199.00 294.00
C 196.62 289.45 199.15 278.96 199.00 273.00
C 198.43 250.23 192.19 226.62 183.00 206.00
C 182.54 205.40 177.83 200.94 178.00 201.00
C 175.84 200.66 173.18 200.90 171.00 201.00
C 165.08 202.68 162.71 212.37 160.08 218.08 C 157.45 223.78 155.64 234.13 154.07 241.07 C 152.51 248.02 150.51 258.54 150.00 266.00
C 149.80 268.97 150.00 272.02 150.00 275.00
C 150.00 277.67 150.00 280.33 150.00 283.00
C 150.00 287.00 150.00 291.00 150.00 295.00
C 150.00 297.33 150.08 299.67 150.00 302.00
C 149.87 305.70 149.92 310.65 145.00 311.00
C 144.61 312.57 145.94 315.22 144.00 316.00
C 142.80 318.27 139.36 323.30 136.00 320.00
C 131.95 320.48 128.17 312.08 126.00 310.00
C 123.85 308.81 123.36 307.46 123.00 307.00
C 118.33 300.92 114.02 295.00 111.00 288.00
C 99.43 261.20 92.07 231.34 94.00 202.00
C 94.10 200.43 94.83 198.96 95.00 198.00
C 94.78 195.04 95.00 191.97 95.00 189.00
C 95.00 186.15 95.99 182.03 96.00 180.00
C 95.72 176.91 95.23 173.37 95.00 170.00
C 94.12 157.10 86.58 149.11 84.67 137.33 C 82.77 125.54 80.50 106.40 82.00 94.00 C 83.50 81.60 85.77 69.38 93.25 60.25 C 100.74 51.13 112.17 41.48 124.22 44.78 C 136.27 48.08 152.37 48.18 164.00 53.00 Z"/>
</g>
<g fill="None" fill-opacity="0.0" stroke="#EFEADF" stroke-opacity="0.95" stroke-width="0.3"><path d="
M 95.00 170.00 
C 96.52 175.02 98.29 181.38 96.00 187.00
C 95.85 188.09 95.16 188.38 95.00 189.00
C 95.00 191.97 94.78 195.04 95.00 198.00
C 95.13 199.77 96.90 201.89 96.00 204.00
C 94.74 203.92 95.44 201.94 94.00 202.00
C 92.07 231.34 99.43 261.20 111.00 288.00
C 110.34 276.82 110.15 263.71 107.22 250.78 C 104.29 237.85 107.96 222.08 109.00 209.00
C 117.19 207.06 113.45 195.01 117.31 189.31 C 121.16 183.60 122.76 171.23 114.00 170.00
C 115.84 152.60 103.05 137.06 104.00 119.00
C 109.23 114.50 115.38 111.54 122.00 110.00
C 121.84 101.52 123.42 91.93 123.78 83.78 C 124.13 75.63 127.90 68.62 121.00 63.00
C 120.90 45.94 141.08 57.22 151.00 57.00
C 159.54 59.21 165.59 68.13 174.00 67.00
C 179.03 75.23 186.87 93.27 197.25 83.25 C 207.63 73.22 206.45 64.14 219.25 58.25 C 232.04 52.36 240.43 54.59 246.92 67.08 C 253.42 79.56 257.74 90.42 257.00 105.00
C 257.00 105.50 257.00 106.00 257.00 106.00
C 259.24 108.89 262.99 105.51 261.00 113.00
C 263.27 87.16 253.30 44.98 220.00 47.00
C 219.70 46.78 219.22 46.04 219.00 46.00
C 213.06 47.06 208.53 49.25 203.00 51.00
C 199.97 51.96 196.61 51.80 193.00 52.00
C 185.74 51.36 180.80 56.78 175.00 60.00
C 173.07 57.56 169.64 56.68 167.00 55.00
C 165.80 54.54 165.45 53.93 164.00 53.00
C 152.37 48.18 136.27 48.08 124.22 44.78 C 112.17 41.48 100.74 51.13 93.25 60.25 C 85.77 69.38 83.50 81.60 82.00 94.00 C 80.50 106.40 82.77 125.54 84.67 137.33 C 86.58 149.11 94.12 157.10 95.00 170.00 Z"/>
</g>
<g fill="None" fill-opacity="0.0" stroke="#DDD8CA" stroke-opacity="0.55" stroke-width="0.3"><path d="
M 219.00 46.00 
C 219.22 46.04 219.70 46.78 220.00 47.00
C 224.58 47.66 230.32 45.86 234.00 46.00
C 228.84 44.68 223.81 45.14 219.00 46.00 Z"/>
</g>
<g fill="None" fill-opacity="0.0" stroke="#C1B9A9" stroke-opacity="0.86" stroke-width="0.3"><path d="
M 220.00 47.00 
C 253.30 44.98 263.27 87.16 261.00 113.00
C 262.99 105.51 259.24 108.89 257.00 106.00
C 253.58 112.15 260.94 121.75 254.70 127.70 C 248.45 133.64 254.69 143.52 251.07 150.08 C 247.44 156.65 246.05 164.15 245.00 172.00 C 243.95 179.85 244.20 186.26 246.00 194.00
C 245.53 188.71 246.35 183.30 246.00 178.00
C 248.50 179.33 245.43 183.74 248.00 185.00
C 248.00 181.67 248.00 178.33 248.00 175.00
C 249.63 186.52 250.70 199.04 252.00 211.00
C 248.90 209.08 248.21 206.73 247.00 201.00
C 247.39 208.11 249.16 215.57 248.22 222.22 C 247.28 228.87 249.79 239.13 248.00 245.00 C 246.21 250.88 247.93 262.11 248.00 262.00
C 251.53 249.71 253.56 237.88 255.00 225.00
C 252.50 211.43 251.64 195.53 250.00 181.00 C 248.36 166.47 255.72 154.56 259.32 141.32 C 262.93 128.08 265.00 111.91 263.00 98.00 C 261.00 84.09 257.59 72.15 251.00 60.00
C 265.69 76.63 266.86 100.27 265.01 122.01 C 263.16 143.75 247.24 164.44 253.00 187.00
C 253.07 186.65 253.89 186.26 254.00 186.00
C 254.03 185.50 254.00 184.50 254.00 184.00
C 254.00 158.49 270.31 130.87 268.00 106.00 C 265.69 81.13 261.71 53.08 234.00 46.00
C 230.32 45.86 224.58 47.66 220.00 47.00 Z"/>
</g>
<g fill="None" fill-opacity="0.0" stroke="#A0A087" stroke-opacity="0.04" stroke-width="0.3"><path d="
M 193.00 52.00 
C 196.61 51.80 199.97 51.96 203.00 51.00
C 199.87 51.56 195.67 51.57 193.00 52.00 Z"/>
</g>
<g fill="None" fill-opacity="0.0" stroke="#DED7C6" stroke-opacity="0.99" stroke-width="0.3"><path d="
M 111.00 288.00 
C 114.02 295.00 118.33 300.92 123.00 307.00
C 123.97 307.69 124.93 308.53 126.00 309.00
C 124.87 292.24 118.81 277.58 117.22 259.78 C 115.63 241.97 117.10 221.92 120.93 204.93 C 124.76 187.94 128.60 173.35 133.99 156.99 C 139.38 140.63 138.49 121.26 137.07 104.93 C 135.65 88.60 130.30 72.84 140.00 59.00
C 143.73 61.57 146.49 55.83 151.00 57.00
C 141.08 57.22 120.90 45.94 121.00 63.00
C 127.90 68.62 124.13 75.63 123.78 83.78 C 123.42 91.93 121.84 101.52 122.00 110.00
C 115.38 111.54 109.23 114.50 104.00 119.00
C 103.05 137.06 115.84 152.60 114.00 170.00
C 122.76 171.23 121.16 183.60 117.31 189.31 C 113.45 195.01 117.19 207.06 109.00 209.00
C 107.96 222.08 104.29 237.85 107.22 250.78 C 110.15 263.71 110.34 276.82 111.00 288.00 Z"/>
</g>
<g fill="None" fill-opacity="0.0" stroke="#A8A196" stroke-opacity="0.29" stroke-width="0.3"><path d="
M 167.00 55.00 
C 166.06 54.40 165.25 53.52 164.00 53.00
C 165.45 53.93 165.80 54.54 167.00 55.00 Z"/>
</g>
<g fill="None" fill-opacity="0.0" stroke="#C7BFAE" stroke-opacity="1.00" stroke-width="0.3"><path d="
M 151.00 57.00 
C 146.49 55.83 143.73 61.57 140.00 59.00
C 130.30 72.84 135.65 88.60 137.07 104.93 C 138.49 121.26 139.38 140.63 133.99 156.99 C 128.60 173.35 124.76 187.94 120.93 204.93 C 117.10 221.92 115.63 241.97 117.22 259.78 C 118.81 277.58 124.87 292.24 126.00 309.00
C 124.93 308.53 123.97 307.69 123.00 307.00
C 123.36 307.46 123.85 308.81 126.00 310.00
C 127.26 310.69 131.01 312.97 133.00 315.00
C 138.25 314.06 131.11 301.00 130.07 295.93 C 129.03 290.85 126.50 280.69 126.00 274.00 C 125.51 267.31 124.15 257.54 124.00 250.00 C 123.85 242.46 124.79 233.55 125.99 225.99 C 127.19 218.44 128.64 212.63 130.98 204.98 C 133.31 197.32 134.29 193.60 136.98 184.98 C 139.66 176.35 139.48 174.86 143.31 164.31 C 147.13 153.75 157.05 140.25 164.32 133.32 C 171.59 126.39 173.78 139.13 174.78 144.22 C 175.78 149.31 176.51 159.59 180.77 164.23 C 185.03 168.87 187.68 173.93 193.25 176.19 C 198.82 178.46 197.21 189.97 197.33 193.67 C 197.45 197.37 199.51 210.73 198.00 210.00
C 199.05 211.29 199.90 213.40 202.00 213.00
C 200.70 205.15 207.68 196.26 203.02 188.98 C 198.37 181.69 203.10 170.45 210.75 177.25 C 218.40 184.05 214.79 190.40 218.98 198.02 C 223.16 205.65 223.45 212.82 225.93 221.07 C 228.40 229.32 227.42 240.20 228.00 249.00 C 228.58 257.80 227.05 267.33 225.22 275.22 C 223.40 283.11 220.63 290.82 218.02 298.02 C 215.42 305.22 210.85 311.00 205.00 315.00
C 205.23 316.55 205.38 315.93 206.00 317.00
C 210.00 317.91 213.59 307.06 216.92 303.92 C 220.24 300.77 223.18 292.43 225.32 287.32 C 227.47 282.21 230.23 274.89 231.78 268.78 C 233.32 262.66 235.55 254.74 235.93 247.93 C 236.31 241.11 236.44 231.00 236.00 224.00 C 235.56 217.00 233.83 209.59 232.07 202.93 C 230.32 196.26 229.28 190.16 226.08 183.92 C 222.87 177.69 221.62 171.98 220.00 165.00 C 218.38 158.02 218.63 153.26 219.00 146.00 C 219.37 138.74 221.02 130.37 221.00 123.00 C 220.97 115.62 223.11 106.27 222.00 99.00 C 220.89 91.73 221.44 84.83 224.32 78.32 C 227.20 71.81 232.41 70.40 237.00 66.00
C 253.30 72.55 251.97 91.95 257.00 105.00
C 257.74 90.42 253.42 79.56 246.92 67.08 C 240.43 54.59 232.04 52.36 219.25 58.25 C 206.45 64.14 207.63 73.22 197.25 83.25 C 186.87 93.27 179.03 75.23 174.00 67.00
C 165.59 68.13 159.54 59.21 151.00 57.00 Z"/>
</g>
<g fill="None" fill-opacity="0.0" stroke="#E0DCD4" stroke-opacity="0.94" stroke-width="0.3"><path d="
M 255.00 225.00 
C 255.27 222.56 255.86 220.60 256.00 218.00
C 255.86 217.15 254.34 214.92 254.00 212.00 C 253.66 209.08 255.84 205.93 256.00 205.00
C 255.83 200.51 254.57 196.51 255.00 192.00
C 252.05 194.49 253.23 188.54 253.00 187.00
C 247.24 164.44 263.16 143.75 265.01 122.01 C 266.86 100.27 265.69 76.63 251.00 60.00
C 257.59 72.15 261.00 84.09 263.00 98.00 C 265.00 111.91 262.93 128.08 259.32 141.32 C 255.72 154.56 248.36 166.47 250.00 181.00 C 251.64 195.53 252.50 211.43 255.00 225.00 Z"/>
</g>
<g fill="None" fill-opacity="0.0" stroke="#B1A897" stroke-opacity="0.99" stroke-width="0.3"><path d="
M 206.00 317.00 
C 206.41 317.71 206.63 319.57 207.00 320.00
C 208.62 321.87 210.67 320.37 212.00 320.00
C 210.76 320.11 208.48 320.49 208.00 319.00
C 213.91 318.38 218.23 312.42 222.00 311.00
C 234.73 295.81 242.54 281.01 248.00 262.00
C 247.93 262.11 246.21 250.88 248.00 245.00 C 249.79 239.13 247.28 228.87 248.22 222.22 C 249.16 215.57 247.39 208.11 247.00 201.00
C 246.86 198.42 246.21 196.41 246.00 194.00
C 244.20 186.26 243.95 179.85 245.00 172.00 C 246.05 164.15 247.44 156.65 251.07 150.08 C 254.69 143.52 248.45 133.64 254.70 127.70 C 260.94 121.75 253.58 112.15 257.00 106.00
C 257.00 106.00 257.00 105.50 257.00 105.00
C 251.97 91.95 253.30 72.55 237.00 66.00
C 232.41 70.40 227.20 71.81 224.32 78.32 C 221.44 84.83 220.89 91.73 222.00 99.00 C 223.11 106.27 220.97 115.62 221.00 123.00 C 221.02 130.37 219.37 138.74 219.00 146.00 C 218.63 153.26 218.38 158.02 220.00 165.00 C 221.62 171.98 222.87 177.69 226.08 183.92 C 229.28 190.16 230.32 196.26 232.07 202.93 C 233.83 209.59 235.56 217.00 236.00 224.00 C 236.44 231.00 236.31 241.11 235.93 247.93 C 235.55 254.74 233.32 262.66 231.78 268.78 C 230.23 274.89 227.47 282.21 225.32 287.32 C 223.18 292.43 220.24 300.77 216.92 303.92 C 213.59 307.06 210.00 317.91 206.00 317.00 Z"/>
</g>
<g fill="None" fill-opacity="0.0" stroke="#ABA08A" stroke-opacity="0.98" stroke-width="0.3"><path d="
M 133.00 315.00 
C 133.54 315.55 135.74 317.53 136.00 318.00
C 137.64 316.68 143.72 312.65 144.00 316.00
C 145.94 315.22 144.61 312.57 145.00 311.00
C 149.92 310.65 149.87 305.70 150.00 302.00
C 149.90 300.34 148.99 297.36 149.00 295.00
C 149.01 293.67 149.00 292.33 149.00 291.00
C 147.86 282.67 147.96 274.01 150.00 266.00
C 150.51 258.54 152.51 248.02 154.07 241.07 C 155.64 234.13 157.45 223.78 160.08 218.08 C 162.71 212.37 165.08 202.68 171.00 201.00
C 166.99 201.19 164.85 202.58 161.00 204.00
C 153.59 231.30 141.26 260.41 145.00 291.00
C 138.55 271.21 141.50 248.82 147.00 229.00
C 146.40 230.22 144.92 231.99 144.00 233.00
C 144.79 226.36 148.05 220.37 150.00 214.00
C 150.86 207.80 151.92 199.71 157.00 194.00
C 150.30 197.13 151.67 207.08 146.00 210.00
C 148.25 203.66 151.61 197.80 155.00 192.00
C 150.27 193.70 149.90 200.98 146.00 204.00
C 143.38 202.28 146.65 199.37 146.00 197.00
C 140.51 203.56 137.23 212.44 136.00 221.00
C 134.55 209.39 143.08 198.42 149.25 188.25 C 155.43 178.09 166.83 167.51 180.00 170.00
C 182.61 174.88 189.73 177.93 190.00 185.00
C 179.80 178.22 202.74 201.17 191.00 195.00
C 190.49 199.51 197.45 203.27 196.00 207.00
C 196.67 207.94 197.31 209.15 198.00 210.00
C 199.51 210.73 197.45 197.37 197.33 193.67 C 197.21 189.97 198.82 178.46 193.25 176.19 C 187.68 173.93 185.03 168.87 180.77 164.23 C 176.51 159.59 175.78 149.31 174.78 144.22 C 173.78 139.13 171.59 126.39 164.32 133.32 C 157.05 140.25 147.13 153.75 143.31 164.31 C 139.48 174.86 139.66 176.35 136.98 184.98 C 134.29 193.60 133.31 197.32 130.98 204.98 C 128.64 212.63 127.19 218.44 125.99 225.99 C 124.79 233.55 123.85 242.46 124.00 250.00 C 124.15 257.54 125.51 267.31 126.00 274.00 C 126.50 280.69 129.03 290.85 130.07 295.93 C 131.11 301.00 138.25 314.06 133.00 315.00 Z"/>
</g>
<g fill="None" fill-opacity="0.0" stroke="#D3CFBE" stroke-opacity="0.45" stroke-width="0.3"><path d="
M 96.00 180.00 
C 96.20 182.14 96.29 184.87 96.00 187.00
C 98.29 181.38 96.52 175.02 95.00 170.00
C 95.23 173.37 95.72 176.91 96.00 180.00 Z"/>
</g>
<g fill="None" fill-opacity="0.0" stroke="#978464" stroke-opacity="1.00" stroke-width="0.3"><path d="
M 150.00 214.00 
C 154.50 203.82 159.24 195.15 170.08 190.08 C 180.91 185.00 190.68 199.52 196.00 207.00
C 197.45 203.27 190.49 199.51 191.00 195.00
C 202.74 201.17 179.80 178.22 190.00 185.00
C 189.73 177.93 182.61 174.88 180.00 170.00
C 166.83 167.51 155.43 178.09 149.25 188.25 C 143.08 198.42 134.55 209.39 136.00 221.00
C 137.23 212.44 140.51 203.56 146.00 197.00
C 146.65 199.37 143.38 202.28 146.00 204.00
C 149.90 200.98 150.27 193.70 155.00 192.00
C 151.61 197.80 148.25 203.66 146.00 210.00
C 151.67 207.08 150.30 197.13 157.00 194.00
C 151.92 199.71 150.86 207.80 150.00 214.00 Z"/>
</g>
<g fill="None" fill-opacity="0.0" stroke="#E5DFD0" stroke-opacity="1.00" stroke-width="0.3"><path d="
M 198.00 210.00 
C 197.31 209.15 196.67 207.94 196.00 207.00
C 190.68 199.52 180.91 185.00 170.08 190.08 C 159.24 195.15 154.50 203.82 150.00 214.00
C 148.05 220.37 144.79 226.36 144.00 233.00
C 144.92 231.99 146.40 230.22 147.00 229.00
C 149.54 219.90 152.83 211.77 158.00 204.00
C 162.00 197.99 168.94 187.59 177.67 190.33 C 186.40 193.07 190.26 202.07 194.00 209.00
C 196.77 214.13 199.43 220.12 201.00 226.00
C 209.76 247.53 211.87 277.02 206.00 300.00
C 205.19 303.18 205.06 306.62 205.00 310.00
C 204.97 311.59 204.77 313.43 205.00 315.00
C 210.85 311.00 215.42 305.22 218.02 298.02 C 220.63 290.82 223.40 283.11 225.22 275.22 C 227.05 267.33 228.58 257.80 228.00 249.00 C 227.42 240.20 228.40 229.32 225.93 221.07 C 223.45 212.82 223.16 205.65 218.98 198.02 C 214.79 190.40 218.40 184.05 210.75 177.25 C 203.10 170.45 198.37 181.69 203.02 188.98 C 207.68 196.26 200.70 205.15 202.00 213.00
C 199.90 213.40 199.05 211.29 198.00 210.00 Z"/>
</g>
<g fill="None" fill-opacity="0.0" stroke="#DCD8CF" stroke-opacity="1.00" stroke-width="0.3"><path d="
M 246.00 194.00 
C 246.21 196.41 246.86 198.42 247.00 201.00
C 248.21 206.73 248.90 209.08 252.00 211.00
C 250.70 199.04 249.63 186.52 248.00 175.00
C 248.00 178.33 248.00 181.67 248.00 185.00
C 245.43 183.74 248.50 179.33 246.00 178.00
C 246.35 183.30 245.53 188.71 246.00 194.00 Z"/>
</g>
<g fill="None" fill-opacity="0.0" stroke="#B3B199" stroke-opacity="0.06" stroke-width="0.3"><path d="
M 95.00 189.00 
C 95.16 188.38 95.85 188.09 96.00 187.00
C 96.29 184.87 96.20 182.14 96.00 180.00
C 95.99 182.03 95.00 186.15 95.00 189.00 Z"/>
</g>
<g fill="None" fill-opacity="0.0" stroke="#AFAE91" stroke-opacity="0.05" stroke-width="0.3"><path d="
M 254.00 186.00 
C 253.90 188.02 253.69 189.64 255.00 191.00
C 255.24 188.44 254.18 185.84 254.00 184.00
C 254.00 184.50 254.03 185.50 254.00 186.00 Z"/>
</g>
<g fill="None" fill-opacity="0.0" stroke="#B6AA98" stroke-opacity="0.70" stroke-width="0.3"><path d="
M 253.00 187.00 
C 253.23 188.54 252.05 194.49 255.00 192.00
C 255.00 192.00 254.95 191.50 255.00 191.00
C 253.69 189.64 253.90 188.02 254.00 186.00
C 253.89 186.26 253.07 186.65 253.00 187.00 Z"/>
</g>
<g fill="None" fill-opacity="0.0" stroke="#7C653E" stroke-opacity="1.00" stroke-width="0.3"><path d="
M 158.00 204.00 
C 162.58 200.08 170.23 190.81 178.69 194.31 C 187.16 197.80 189.63 207.99 194.00 215.00
C 194.72 212.68 192.52 210.93 194.00 209.00
C 190.26 202.07 186.40 193.07 177.67 190.33 C 168.94 187.59 162.00 197.99 158.00 204.00 Z"/>
</g>
<g fill="None" fill-opacity="0.0" stroke="#937F5E" stroke-opacity="0.99" stroke-width="0.3"><path d="
M 158.00 204.00 
C 152.83 211.77 149.54 219.90 147.00 229.00
C 141.50 248.82 138.55 271.21 145.00 291.00
C 141.26 260.41 153.59 231.30 161.00 204.00
C 164.85 202.58 166.99 201.19 171.00 201.00
C 173.18 200.90 175.84 200.66 178.00 201.00
C 179.16 201.18 179.96 201.43 181.00 202.00
C 190.06 206.97 193.48 221.01 195.00 230.00
C 196.42 235.24 200.71 240.76 200.00 247.00
C 201.33 240.60 202.64 232.77 201.00 226.00
C 199.43 220.12 196.77 214.13 194.00 209.00
C 192.52 210.93 194.72 212.68 194.00 215.00
C 189.63 207.99 187.16 197.80 178.69 194.31 C 170.23 190.81 162.58 200.08 158.00 204.00 Z"/>
</g>
<g fill="None" fill-opacity="0.0" stroke="#C6C3B3" stroke-opacity="0.40" stroke-width="0.3"><path d="
M 94.00 202.00 
C 95.44 201.94 94.74 203.92 96.00 204.00
C 96.90 201.89 95.13 199.77 95.00 198.00
C 94.83 198.96 94.10 200.43 94.00 202.00 Z"/>
</g>
<g fill="None" fill-opacity="0.0" stroke="#A19986" stroke-opacity="0.23" stroke-width="0.3"><path d="
M 183.00 206.00 
C 182.48 204.84 182.16 202.89 181.00 202.00
C 179.96 201.43 179.16 201.18 178.00 201.00
C 177.83 200.94 182.54 205.40 183.00 206.00 Z"/>
</g>
<g fill="None" fill-opacity="0.0" stroke="#B7AD9A" stroke-opacity="0.65" stroke-width="0.3"><path d="
M 183.00 206.00 
C 192.19 226.62 198.43 250.23 199.00 273.00
C 199.17 273.24 200.92 273.19 201.00 273.00
C 201.00 257.54 197.46 244.57 195.00 230.00
C 193.48 221.01 190.06 206.97 181.00 202.00
C 182.16 202.89 182.48 204.84 183.00 206.00 Z"/>
</g>
<g fill="None" fill-opacity="0.0" stroke="#BDB3A2" stroke-opacity="0.52" stroke-width="0.3"><path d="
M 256.00 218.00 
C 256.23 213.73 256.16 209.27 256.00 205.00
C 255.84 205.93 253.66 209.08 254.00 212.00 C 254.34 214.92 255.86 217.15 256.00 218.00 Z"/>
</g>
<g fill="None" fill-opacity="0.0" stroke="#B7A686" stroke-opacity="1.00" stroke-width="0.3"><path d="
M 195.00 230.00 
C 197.46 244.57 201.00 257.54 201.00 273.00
C 201.00 280.17 200.54 287.14 200.00 294.00
C 199.79 296.65 200.17 299.35 200.00 302.00
C 201.62 304.44 206.31 299.53 206.00 300.00
C 211.87 277.02 209.76 247.53 201.00 226.00
C 202.64 232.77 201.33 240.60 200.00 247.00
C 200.71 240.76 196.42 235.24 195.00 230.00 Z"/>
</g>
<g fill="None" fill-opacity="0.0" stroke="#A89A82" stroke-opacity="0.48" stroke-width="0.3"><path d="
M 149.00 291.00 
C 149.00 288.33 149.00 285.67 149.00 283.00
C 149.00 280.23 149.80 277.04 150.00 275.00
C 150.00 272.02 149.80 268.97 150.00 266.00
C 147.96 274.01 147.86 282.67 149.00 291.00 Z"/>
</g>
<g fill="None" fill-opacity="0.0" stroke="#C1BAAB" stroke-opacity="0.43" stroke-width="0.3"><path d="
M 199.00 294.00 
C 199.25 293.75 200.00 294.00 200.00 294.00
C 200.54 287.14 201.00 280.17 201.00 273.00
C 200.92 273.19 199.17 273.24 199.00 273.00
C 199.15 278.96 196.62 289.45 199.00 294.00 Z"/>
</g>
<g fill="None" fill-opacity="0.0" stroke="#808080" stroke-opacity="0.01" stroke-width="0.3"><path d="
M 149.00 283.00 
C 149.00 282.96 150.00 283.00 150.00 283.00
C 150.00 280.33 150.00 277.67 150.00 275.00
C 149.80 277.04 149.00 280.23 149.00 283.00 Z"/>
</g>
<g fill="None" fill-opacity="0.0" stroke="#A1967C" stroke-opacity="0.08" stroke-width="0.3"><path d="
M 149.00 291.00 
C 149.00 292.33 149.01 293.67 149.00 295.00
C 149.13 295.22 150.00 295.00 150.00 295.00
C 150.00 291.00 150.00 287.00 150.00 283.00
C 150.00 283.00 149.00 282.96 149.00 283.00
C 149.00 285.67 149.00 288.33 149.00 291.00 Z"/>
</g>
<g fill="None" fill-opacity="0.0" stroke="#AA9E8C" stroke-opacity="0.57" stroke-width="0.3"><path d="
M 199.00 295.00 
C 199.00 297.78 198.21 300.95 198.00 303.00
C 198.04 304.22 197.98 304.31 199.00 306.00
C 198.91 305.55 199.92 303.23 200.00 302.00
C 200.17 299.35 199.79 296.65 200.00 294.00
C 200.00 294.00 199.25 293.75 199.00 294.00
C 199.00 294.00 199.00 294.50 199.00 295.00 Z"/>
</g>
<g fill="None" fill-opacity="0.0" stroke="#AFA391" stroke-opacity="0.37" stroke-width="0.3"><path d="
M 150.00 302.00 
C 150.08 299.67 150.00 297.33 150.00 295.00
C 150.00 295.00 149.13 295.22 149.00 295.00
C 148.99 297.36 149.90 300.34 150.00 302.00 Z"/>
</g>
<g fill="None" fill-opacity="0.0" stroke="#BFB8A4" stroke-opacity="0.11" stroke-width="0.3"><path d="
M 198.00 303.00 
C 198.21 300.95 199.00 297.78 199.00 295.00
C 197.49 297.03 197.91 300.23 198.00 303.00 Z"/>
</g>
<g fill="None" fill-opacity="0.0" stroke="#958262" stroke-opacity="0.89" stroke-width="0.3"><path d="
M 200.00 302.00 
C 199.92 303.23 198.91 305.55 199.00 306.00
C 200.19 307.96 199.99 309.77 203.00 310.00
C 203.50 310.04 204.72 309.75 205.00 310.00
C 205.06 306.62 205.19 303.18 206.00 300.00
C 206.31 299.53 201.62 304.44 200.00 302.00 Z"/>
</g>
<g fill="None" fill-opacity="0.0" stroke="#AEA591" stroke-opacity="0.29" stroke-width="0.3"><path d="
M 126.00 310.00 
C 128.17 312.08 131.95 320.48 136.00 320.00
C 135.75 319.75 136.21 318.39 136.00 318.00
C 135.74 317.53 133.54 315.55 133.00 315.00
C 131.01 312.97 127.26 310.69 126.00 310.00 Z"/>
</g>
<g fill="None" fill-opacity="0.0" stroke="#C0B8A5" stroke-opacity="0.35" stroke-width="0.3"><path d="
M 207.00 320.00 
C 206.63 319.57 206.41 317.71 206.00 317.00
C 205.38 315.93 205.23 316.55 205.00 315.00
C 204.77 313.43 204.97 311.59 205.00 310.00
C 204.72 309.75 203.50 310.04 203.00 310.00
C 201.54 313.09 204.32 318.61 207.00 320.00 Z"/>
</g>
<g fill="None" fill-opacity="0.0" stroke="#8C7B5F" stroke-opacity="0.56" stroke-width="0.3"><path d="
M 212.00 320.00 
C 217.35 318.52 218.72 314.92 222.00 311.00
C 218.23 312.42 213.91 318.38 208.00 319.00
C 208.48 320.49 210.76 320.11 212.00 320.00 Z"/>
</g>
<g fill="None" fill-opacity="0.0" stroke="#877456" stroke-opacity="0.70" stroke-width="0.3"><path d="
M 136.00 318.00 
C 136.21 318.39 135.75 319.75 136.00 320.00
C 139.36 323.30 142.80 318.27 144.00 316.00
C 143.72 312.65 137.64 316.68 136.00 318.00 Z"/>
</g>
<g fill="#000000" fill-opacity="0.00" stroke="None">
<path d="
M 0.00 350.00 
L 350.00 350.00
L 350.00 0.00
L 0.00 0.00
L 0.00 350.00
M 164.00 53.00 
C 165.25 53.52 166.06 54.40 167.00 55.00
C 169.64 56.68 173.07 57.56 175.00 60.00
C 180.80 56.78 185.74 51.36 193.00 52.00
C 195.67 51.57 199.87 51.56 203.00 51.00
C 208.53 49.25 213.06 47.06 219.00 46.00
C 223.81 45.14 228.84 44.68 234.00 46.00
C 261.71 53.08 265.69 81.13 268.00 106.00 C 270.31 130.87 254.00 158.49 254.00 184.00
C 254.18 185.84 255.24 188.44 255.00 191.00
C 254.95 191.50 255.00 192.00 255.00 192.00
C 254.57 196.51 255.83 200.51 256.00 205.00
C 256.16 209.27 256.23 213.73 256.00 218.00
C 255.86 220.60 255.27 222.56 255.00 225.00
C 253.56 237.88 251.53 249.71 248.00 262.00
C 242.54 281.01 234.73 295.81 222.00 311.00
C 218.72 314.92 217.35 318.52 212.00 320.00
C 210.67 320.37 208.62 321.87 207.00 320.00
C 204.32 318.61 201.54 313.09 203.00 310.00
C 199.99 309.77 200.19 307.96 199.00 306.00
C 197.98 304.31 198.04 304.22 198.00 303.00
C 197.91 300.23 197.49 297.03 199.00 295.00
C 199.00 294.50 199.00 294.00 199.00 294.00
C 196.62 289.45 199.15 278.96 199.00 273.00
C 198.43 250.23 192.19 226.62 183.00 206.00
C 182.54 205.40 177.83 200.94 178.00 201.00
C 175.84 200.66 173.18 200.90 171.00 201.00
C 165.08 202.68 162.71 212.37 160.08 218.08 C 157.45 223.78 155.64 234.13 154.07 241.07 C 152.51 248.02 150.51 258.54 150.00 266.00
C 149.80 268.97 150.00 272.02 150.00 275.00
C 150.00 277.67 150.00 280.33 150.00 283.00
C 150.00 287.00 150.00 291.00 150.00 295.00
C 150.00 297.33 150.08 299.67 150.00 302.00
C 149.87 305.70 149.92 310.65 145.00 311.00
C 144.61 312.57 145.94 315.22 144.00 316.00
C 142.80 318.27 139.36 323.30 136.00 320.00
C 131.95 320.48 128.17 312.08 126.00 310.00
C 123.85 308.81 123.36 307.46 123.00 307.00
C 118.33 300.92 114.02 295.00 111.00 288.00
C 99.43 261.20 92.07 231.34 94.00 202.00
C 94.10 200.43 94.83 198.96 95.00 198.00
C 94.78 195.04 95.00 191.97 95.00 189.00
C 95.00 186.15 95.99 182.03 96.00 180.00
C 95.72 176.91 95.23 173.37 95.00 170.00
C 94.12 157.10 86.58 149.11 84.67 137.33 C 82.77 125.54 80.50 106.40 82.00 94.00 C 83.50 81.60 85.77 69.38 93.25 60.25 C 100.74 51.13 112.17 41.48 124.22 44.78 C 136.27 48.08 152.37 48.18 164.00 53.00 Z"/>
</g>
<g fill="#EFEADF" fill-opacity="0.95" stroke="None">
<path d="
M 95.00 170.00 
C 96.52 175.02 98.29 181.38 96.00 187.00
C 95.85 188.09 95.16 188.38 95.00 189.00
C 95.00 191.97 94.78 195.04 95.00 198.00
C 95.13 199.77 96.90 201.89 96.00 204.00
C 94.74 203.92 95.44 201.94 94.00 202.00
C 92.07 231.34 99.43 261.20 111.00 288.00
C 110.34 276.82 110.15 263.71 107.22 250.78 C 104.29 237.85 107.96 222.08 109.00 209.00
C 117.19 207.06 113.45 195.01 117.31 189.31 C 121.16 183.60 122.76 171.23 114.00 170.00
C 115.84 152.60 103.05 137.06 104.00 119.00
C 109.23 114.50 115.38 111.54 122.00 110.00
C 121.84 101.52 123.42 91.93 123.78 83.78 C 124.13 75.63 127.90 68.62 121.00 63.00
C 120.90 45.94 141.08 57.22 151.00 57.00
C 159.54 59.21 165.59 68.13 174.00 67.00
C 179.03 75.23 186.87 93.27 197.25 83.25 C 207.63 73.22 206.45 64.14 219.25 58.25 C 232.04 52.36 240.43 54.59 246.92 67.08 C 253.42 79.56 257.74 90.42 257.00 105.00
C 257.00 105.50 257.00 106.00 257.00 106.00
C 259.24 108.89 262.99 105.51 261.00 113.00
C 263.27 87.16 253.30 44.98 220.00 47.00
C 219.70 46.78 219.22 46.04 219.00 46.00
C 213.06 47.06 208.53 49.25 203.00 51.00
C 199.97 51.96 196.61 51.80 193.00 52.00
C 185.74 51.36 180.80 56.78 175.00 60.00
C 173.07 57.56 169.64 56.68 167.00 55.00
C 165.80 54.54 165.45 53.93 164.00 53.00
C 152.37 48.18 136.27 48.08 124.22 44.78 C 112.17 41.48 100.74 51.13 93.25 60.25 C 85.77 69.38 83.50 81.60 82.00 94.00 C 80.50 106.40 82.77 125.54 84.67 137.33 C 86.58 149.11 94.12 157.10 95.00 170.00 Z"/>
</g>
<g fill="#DDD8CA" fill-opacity="0.55" stroke="None">
<path d="
M 219.00 46.00 
C 219.22 46.04 219.70 46.78 220.00 47.00
C 224.58 47.66 230.32 45.86 234.00 46.00
C 228.84 44.68 223.81 45.14 219.00 46.00 Z"/>
</g>
<g fill="#C1B9A9" fill-opacity="0.86" stroke="None">
<path d="
M 220.00 47.00 
C 253.30 44.98 263.27 87.16 261.00 113.00
C 262.99 105.51 259.24 108.89 257.00 106.00
C 253.58 112.15 260.94 121.75 254.70 127.70 C 248.45 133.64 254.69 143.52 251.07 150.08 C 247.44 156.65 246.05 164.15 245.00 172.00 C 243.95 179.85 244.20 186.26 246.00 194.00
C 245.53 188.71 246.35 183.30 246.00 178.00
C 248.50 179.33 245.43 183.74 248.00 185.00
C 248.00 181.67 248.00 178.33 248.00 175.00
C 249.63 186.52 250.70 199.04 252.00 211.00
C 248.90 209.08 248.21 206.73 247.00 201.00
C 247.39 208.11 249.16 215.57 248.22 222.22 C 247.28 228.87 249.79 239.13 248.00 245.00 C 246.21 250.88 247.93 262.11 248.00 262.00
C 251.53 249.71 253.56 237.88 255.00 225.00
C 252.50 211.43 251.64 195.53 250.00 181.00 C 248.36 166.47 255.72 154.56 259.32 141.32 C 262.93 128.08 265.00 111.91 263.00 98.00 C 261.00 84.09 257.59 72.15 251.00 60.00
C 265.69 76.63 266.86 100.27 265.01 122.01 C 263.16 143.75 247.24 164.44 253.00 187.00
C 253.07 186.65 253.89 186.26 254.00 186.00
C 254.03 185.50 254.00 184.50 254.00 184.00
C 254.00 158.49 270.31 130.87 268.00 106.00 C 265.69 81.13 261.71 53.08 234.00 46.00
C 230.32 45.86 224.58 47.66 220.00 47.00 Z"/>
</g>
<g fill="#A0A087" fill-opacity="0.04" stroke="None">
<path d="
M 193.00 52.00 
C 196.61 51.80 199.97 51.96 203.00 51.00
C 199.87 51.56 195.67 51.57 193.00 52.00 Z"/>
</g>
<g fill="#DED7C6" fill-opacity="0.99" stroke="None">
<path d="
M 111.00 288.00 
C 114.02 295.00 118.33 300.92 123.00 307.00
C 123.97 307.69 124.93 308.53 126.00 309.00
C 124.87 292.24 118.81 277.58 117.22 259.78 C 115.63 241.97 117.10 221.92 120.93 204.93 C 124.76 187.94 128.60 173.35 133.99 156.99 C 139.38 140.63 138.49 121.26 137.07 104.93 C 135.65 88.60 130.30 72.84 140.00 59.00
C 143.73 61.57 146.49 55.83 151.00 57.00
C 141.08 57.22 120.90 45.94 121.00 63.00
C 127.90 68.62 124.13 75.63 123.78 83.78 C 123.42 91.93 121.84 101.52 122.00 110.00
C 115.38 111.54 109.23 114.50 104.00 119.00
C 103.05 137.06 115.84 152.60 114.00 170.00
C 122.76 171.23 121.16 183.60 117.31 189.31 C 113.45 195.01 117.19 207.06 109.00 209.00
C 107.96 222.08 104.29 237.85 107.22 250.78 C 110.15 263.71 110.34 276.82 111.00 288.00 Z"/>
</g>
<g fill="#A8A196" fill-opacity="0.29" stroke="None">
<path d="
M 167.00 55.00 
C 166.06 54.40 165.25 53.52 164.00 53.00
C 165.45 53.93 165.80 54.54 167.00 55.00 Z"/>
</g>
<g fill="#C7BFAE" fill-opacity="1.00" stroke="None">
<path d="
M 151.00 57.00 
C 146.49 55.83 143.73 61.57 140.00 59.00
C 130.30 72.84 135.65 88.60 137.07 104.93 C 138.49 121.26 139.38 140.63 133.99 156.99 C 128.60 173.35 124.76 187.94 120.93 204.93 C 117.10 221.92 115.63 241.97 117.22 259.78 C 118.81 277.58 124.87 292.24 126.00 309.00
C 124.93 308.53 123.97 307.69 123.00 307.00
C 123.36 307.46 123.85 308.81 126.00 310.00
C 127.26 310.69 131.01 312.97 133.00 315.00
C 138.25 314.06 131.11 301.00 130.07 295.93 C 129.03 290.85 126.50 280.69 126.00 274.00 C 125.51 267.31 124.15 257.54 124.00 250.00 C 123.85 242.46 124.79 233.55 125.99 225.99 C 127.19 218.44 128.64 212.63 130.98 204.98 C 133.31 197.32 134.29 193.60 136.98 184.98 C 139.66 176.35 139.48 174.86 143.31 164.31 C 147.13 153.75 157.05 140.25 164.32 133.32 C 171.59 126.39 173.78 139.13 174.78 144.22 C 175.78 149.31 176.51 159.59 180.77 164.23 C 185.03 168.87 187.68 173.93 193.25 176.19 C 198.82 178.46 197.21 189.97 197.33 193.67 C 197.45 197.37 199.51 210.73 198.00 210.00
C 199.05 211.29 199.90 213.40 202.00 213.00
C 200.70 205.15 207.68 196.26 203.02 188.98 C 198.37 181.69 203.10 170.45 210.75 177.25 C 218.40 184.05 214.79 190.40 218.98 198.02 C 223.16 205.65 223.45 212.82 225.93 221.07 C 228.40 229.32 227.42 240.20 228.00 249.00 C 228.58 257.80 227.05 267.33 225.22 275.22 C 223.40 283.11 220.63 290.82 218.02 298.02 C 215.42 305.22 210.85 311.00 205.00 315.00
C 205.23 316.55 205.38 315.93 206.00 317.00
C 210.00 317.91 213.59 307.06 216.92 303.92 C 220.24 300.77 223.18 292.43 225.32 287.32 C 227.47 282.21 230.23 274.89 231.78 268.78 C 233.32 262.66 235.55 254.74 235.93 247.93 C 236.31 241.11 236.44 231.00 236.00 224.00 C 235.56 217.00 233.83 209.59 232.07 202.93 C 230.32 196.26 229.28 190.16 226.08 183.92 C 222.87 177.69 221.62 171.98 220.00 165.00 C 218.38 158.02 218.63 153.26 219.00 146.00 C 219.37 138.74 221.02 130.37 221.00 123.00 C 220.97 115.62 223.11 106.27 222.00 99.00 C 220.89 91.73 221.44 84.83 224.32 78.32 C 227.20 71.81 232.41 70.40 237.00 66.00
C 253.30 72.55 251.97 91.95 257.00 105.00
C 257.74 90.42 253.42 79.56 246.92 67.08 C 240.43 54.59 232.04 52.36 219.25 58.25 C 206.45 64.14 207.63 73.22 197.25 83.25 C 186.87 93.27 179.03 75.23 174.00 67.00
C 165.59 68.13 159.54 59.21 151.00 57.00 Z"/>
</g>
<g fill="#E0DCD4" fill-opacity="0.94" stroke="None">
<path d="
M 255.00 225.00 
C 255.27 222.56 255.86 220.60 256.00 218.00
C 255.86 217.15 254.34 214.92 254.00 212.00 C 253.66 209.08 255.84 205.93 256.00 205.00
C 255.83 200.51 254.57 196.51 255.00 192.00
C 252.05 194.49 253.23 188.54 253.00 187.00
C 247.24 164.44 263.16 143.75 265.01 122.01 C 266.86 100.27 265.69 76.63 251.00 60.00
C 257.59 72.15 261.00 84.09 263.00 98.00 C 265.00 111.91 262.93 128.08 259.32 141.32 C 255.72 154.56 248.36 166.47 250.00 181.00 C 251.64 195.53 252.50 211.43 255.00 225.00 Z"/>
</g>
<g fill="#B1A897" fill-opacity="0.99" stroke="None">
<path d="
M 206.00 317.00 
C 206.41 317.71 206.63 319.57 207.00 320.00
C 208.62 321.87 210.67 320.37 212.00 320.00
C 210.76 320.11 208.48 320.49 208.00 319.00
C 213.91 318.38 218.23 312.42 222.00 311.00
C 234.73 295.81 242.54 281.01 248.00 262.00
C 247.93 262.11 246.21 250.88 248.00 245.00 C 249.79 239.13 247.28 228.87 248.22 222.22 C 249.16 215.57 247.39 208.11 247.00 201.00
C 246.86 198.42 246.21 196.41 246.00 194.00
C 244.20 186.26 243.95 179.85 245.00 172.00 C 246.05 164.15 247.44 156.65 251.07 150.08 C 254.69 143.52 248.45 133.64 254.70 127.70 C 260.94 121.75 253.58 112.15 257.00 106.00
C 257.00 106.00 257.00 105.50 257.00 105.00
C 251.97 91.95 253.30 72.55 237.00 66.00
C 232.41 70.40 227.20 71.81 224.32 78.32 C 221.44 84.83 220.89 91.73 222.00 99.00 C 223.11 106.27 220.97 115.62 221.00 123.00 C 221.02 130.37 219.37 138.74 219.00 146.00 C 218.63 153.26 218.38 158.02 220.00 165.00 C 221.62 171.98 222.87 177.69 226.08 183.92 C 229.28 190.16 230.32 196.26 232.07 202.93 C 233.83 209.59 235.56 217.00 236.00 224.00 C 236.44 231.00 236.31 241.11 235.93 247.93 C 235.55 254.74 233.32 262.66 231.78 268.78 C 230.23 274.89 227.47 282.21 225.32 287.32 C 223.18 292.43 220.24 300.77 216.92 303.92 C 213.59 307.06 210.00 317.91 206.00 317.00 Z"/>
</g>
<g fill="#ABA08A" fill-opacity="0.98" stroke="None">
<path d="
M 133.00 315.00 
C 133.54 315.55 135.74 317.53 136.00 318.00
C 137.64 316.68 143.72 312.65 144.00 316.00
C 145.94 315.22 144.61 312.57 145.00 311.00
C 149.92 310.65 149.87 305.70 150.00 302.00
C 149.90 300.34 148.99 297.36 149.00 295.00
C 149.01 293.67 149.00 292.33 149.00 291.00
C 147.86 282.67 147.96 274.01 150.00 266.00
C 150.51 258.54 152.51 248.02 154.07 241.07 C 155.64 234.13 157.45 223.78 160.08 218.08 C 162.71 212.37 165.08 202.68 171.00 201.00
C 166.99 201.19 164.85 202.58 161.00 204.00
C 153.59 231.30 141.26 260.41 145.00 291.00
C 138.55 271.21 141.50 248.82 147.00 229.00
C 146.40 230.22 144.92 231.99 144.00 233.00
C 144.79 226.36 148.05 220.37 150.00 214.00
C 150.86 207.80 151.92 199.71 157.00 194.00
C 150.30 197.13 151.67 207.08 146.00 210.00
C 148.25 203.66 151.61 197.80 155.00 192.00
C 150.27 193.70 149.90 200.98 146.00 204.00
C 143.38 202.28 146.65 199.37 146.00 197.00
C 140.51 203.56 137.23 212.44 136.00 221.00
C 134.55 209.39 143.08 198.42 149.25 188.25 C 155.43 178.09 166.83 167.51 180.00 170.00
C 182.61 174.88 189.73 177.93 190.00 185.00
C 179.80 178.22 202.74 201.17 191.00 195.00
C 190.49 199.51 197.45 203.27 196.00 207.00
C 196.67 207.94 197.31 209.15 198.00 210.00
C 199.51 210.73 197.45 197.37 197.33 193.67 C 197.21 189.97 198.82 178.46 193.25 176.19 C 187.68 173.93 185.03 168.87 180.77 164.23 C 176.51 159.59 175.78 149.31 174.78 144.22 C 173.78 139.13 171.59 126.39 164.32 133.32 C 157.05 140.25 147.13 153.75 143.31 164.31 C 139.48 174.86 139.66 176.35 136.98 184.98 C 134.29 193.60 133.31 197.32 130.98 204.98 C 128.64 212.63 127.19 218.44 125.99 225.99 C 124.79 233.55 123.85 242.46 124.00 250.00 C 124.15 257.54 125.51 267.31 126.00 274.00 C 126.50 280.69 129.03 290.85 130.07 295.93 C 131.11 301.00 138.25 314.06 133.00 315.00 Z"/>
</g>
<g fill="#D3CFBE" fill-opacity="0.45" stroke="None">
<path d="
M 96.00 180.00 
C 96.20 182.14 96.29 184.87 96.00 187.00
C 98.29 181.38 96.52 175.02 95.00 170.00
C 95.23 173.37 95.72 176.91 96.00 180.00 Z"/>
</g>
<g fill="#978464" fill-opacity="1.00" stroke="None">
<path d="
M 150.00 214.00 
C 154.50 203.82 159.24 195.15 170.08 190.08 C 180.91 185.00 190.68 199.52 196.00 207.00
C 197.45 203.27 190.49 199.51 191.00 195.00
C 202.74 201.17 179.80 178.22 190.00 185.00
C 189.73 177.93 182.61 174.88 180.00 170.00
C 166.83 167.51 155.43 178.09 149.25 188.25 C 143.08 198.42 134.55 209.39 136.00 221.00
C 137.23 212.44 140.51 203.56 146.00 197.00
C 146.65 199.37 143.38 202.28 146.00 204.00
C 149.90 200.98 150.27 193.70 155.00 192.00
C 151.61 197.80 148.25 203.66 146.00 210.00
C 151.67 207.08 150.30 197.13 157.00 194.00
C 151.92 199.71 150.86 207.80 150.00 214.00 Z"/>
</g>
<g fill="#E5DFD0" fill-opacity="1.00" stroke="None">
<path d="
M 198.00 210.00 
C 197.31 209.15 196.67 207.94 196.00 207.00
C 190.68 199.52 180.91 185.00 170.08 190.08 C 159.24 195.15 154.50 203.82 150.00 214.00
C 148.05 220.37 144.79 226.36 144.00 233.00
C 144.92 231.99 146.40 230.22 147.00 229.00
C 149.54 219.90 152.83 211.77 158.00 204.00
C 162.00 197.99 168.94 187.59 177.67 190.33 C 186.40 193.07 190.26 202.07 194.00 209.00
C 196.77 214.13 199.43 220.12 201.00 226.00
C 209.76 247.53 211.87 277.02 206.00 300.00
C 205.19 303.18 205.06 306.62 205.00 310.00
C 204.97 311.59 204.77 313.43 205.00 315.00
C 210.85 311.00 215.42 305.22 218.02 298.02 C 220.63 290.82 223.40 283.11 225.22 275.22 C 227.05 267.33 228.58 257.80 228.00 249.00 C 227.42 240.20 228.40 229.32 225.93 221.07 C 223.45 212.82 223.16 205.65 218.98 198.02 C 214.79 190.40 218.40 184.05 210.75 177.25 C 203.10 170.45 198.37 181.69 203.02 188.98 C 207.68 196.26 200.70 205.15 202.00 213.00
C 199.90 213.40 199.05 211.29 198.00 210.00 Z"/>
</g>
<g fill="#DCD8CF" fill-opacity="1.00" stroke="None">
<path d="
M 246.00 194.00 
C 246.21 196.41 246.86 198.42 247.00 201.00
C 248.21 206.73 248.90 209.08 252.00 211.00
C 250.70 199.04 249.63 186.52 248.00 175.00
C 248.00 178.33 248.00 181.67 248.00 185.00
C 245.43 183.74 248.50 179.33 246.00 178.00
C 246.35 183.30 245.53 188.71 246.00 194.00 Z"/>
</g>
<g fill="#B3B199" fill-opacity="0.06" stroke="None">
<path d="
M 95.00 189.00 
C 95.16 188.38 95.85 188.09 96.00 187.00
C 96.29 184.87 96.20 182.14 96.00 180.00
C 95.99 182.03 95.00 186.15 95.00 189.00 Z"/>
</g>
<g fill="#AFAE91" fill-opacity="0.05" stroke="None">
<path d="
M 254.00 186.00 
C 253.90 188.02 253.69 189.64 255.00 191.00
C 255.24 188.44 254.18 185.84 254.00 184.00
C 254.00 184.50 254.03 185.50 254.00 186.00 Z"/>
</g>
<g fill="#B6AA98" fill-opacity="0.70" stroke="None">
<path d="
M 253.00 187.00 
C 253.23 188.54 252.05 194.49 255.00 192.00
C 255.00 192.00 254.95 191.50 255.00 191.00
C 253.69 189.64 253.90 188.02 254.00 186.00
C 253.89 186.26 253.07 186.65 253.00 187.00 Z"/>
</g>
<g fill="#7C653E" fill-opacity="1.00" stroke="None">
<path d="
M 158.00 204.00 
C 162.58 200.08 170.23 190.81 178.69 194.31 C 187.16 197.80 189.63 207.99 194.00 215.00
C 194.72 212.68 192.52 210.93 194.00 209.00
C 190.26 202.07 186.40 193.07 177.67 190.33 C 168.94 187.59 162.00 197.99 158.00 204.00 Z"/>
</g>
<g fill="#937F5E" fill-opacity="0.99" stroke="None">
<path d="
M 158.00 204.00 
C 152.83 211.77 149.54 219.90 147.00 229.00
C 141.50 248.82 138.55 271.21 145.00 291.00
C 141.26 260.41 153.59 231.30 161.00 204.00
C 164.85 202.58 166.99 201.19 171.00 201.00
C 173.18 200.90 175.84 200.66 178.00 201.00
C 179.16 201.18 179.96 201.43 181.00 202.00
C 190.06 206.97 193.48 221.01 195.00 230.00
C 196.42 235.24 200.71 240.76 200.00 247.00
C 201.33 240.60 202.64 232.77 201.00 226.00
C 199.43 220.12 196.77 214.13 194.00 209.00
C 192.52 210.93 194.72 212.68 194.00 215.00
C 189.63 207.99 187.16 197.80 178.69 194.31 C 170.23 190.81 162.58 200.08 158.00 204.00 Z"/>
</g>
<g fill="#C6C3B3" fill-opacity="0.40" stroke="None">
<path d="
M 94.00 202.00 
C 95.44 201.94 94.74 203.92 96.00 204.00
C 96.90 201.89 95.13 199.77 95.00 198.00
C 94.83 198.96 94.10 200.43 94.00 202.00 Z"/>
</g>
<g fill="#A19986" fill-opacity="0.23" stroke="None">
<path d="
M 183.00 206.00 
C 182.48 204.84 182.16 202.89 181.00 202.00
C 179.96 201.43 179.16 201.18 178.00 201.00
C 177.83 200.94 182.54 205.40 183.00 206.00 Z"/>
</g>
<g fill="#B7AD9A" fill-opacity="0.65" stroke="None">
<path d="
M 183.00 206.00 
C 192.19 226.62 198.43 250.23 199.00 273.00
C 199.17 273.24 200.92 273.19 201.00 273.00
C 201.00 257.54 197.46 244.57 195.00 230.00
C 193.48 221.01 190.06 206.97 181.00 202.00
C 182.16 202.89 182.48 204.84 183.00 206.00 Z"/>
</g>
<g fill="#BDB3A2" fill-opacity="0.52" stroke="None">
<path d="
M 256.00 218.00 
C 256.23 213.73 256.16 209.27 256.00 205.00
C 255.84 205.93 253.66 209.08 254.00 212.00 C 254.34 214.92 255.86 217.15 256.00 218.00 Z"/>
</g>
<g fill="#B7A686" fill-opacity="1.00" stroke="None">
<path d="
M 195.00 230.00 
C 197.46 244.57 201.00 257.54 201.00 273.00
C 201.00 280.17 200.54 287.14 200.00 294.00
C 199.79 296.65 200.17 299.35 200.00 302.00
C 201.62 304.44 206.31 299.53 206.00 300.00
C 211.87 277.02 209.76 247.53 201.00 226.00
C 202.64 232.77 201.33 240.60 200.00 247.00
C 200.71 240.76 196.42 235.24 195.00 230.00 Z"/>
</g>
<g fill="#A89A82" fill-opacity="0.48" stroke="None">
<path d="
M 149.00 291.00 
C 149.00 288.33 149.00 285.67 149.00 283.00
C 149.00 280.23 149.80 277.04 150.00 275.00
C 150.00 272.02 149.80 268.97 150.00 266.00
C 147.96 274.01 147.86 282.67 149.00 291.00 Z"/>
</g>
<g fill="#C1BAAB" fill-opacity="0.43" stroke="None">
<path d="
M 199.00 294.00 
C 199.25 293.75 200.00 294.00 200.00 294.00
C 200.54 287.14 201.00 280.17 201.00 273.00
C 200.92 273.19 199.17 273.24 199.00 273.00
C 199.15 278.96 196.62 289.45 199.00 294.00 Z"/>
</g>
<g fill="#808080" fill-opacity="0.01" stroke="None">
<path d="
M 149.00 283.00 
C 149.00 282.96 150.00 283.00 150.00 283.00
C 150.00 280.33 150.00 277.67 150.00 275.00
C 149.80 277.04 149.00 280.23 149.00 283.00 Z"/>
</g>
<g fill="#A1967C" fill-opacity="0.08" stroke="None">
<path d="
M 149.00 291.00 
C 149.00 292.33 149.01 293.67 149.00 295.00
C 149.13 295.22 150.00 295.00 150.00 295.00
C 150.00 291.00 150.00 287.00 150.00 283.00
C 150.00 283.00 149.00 282.96 149.00 283.00
C 149.00 285.67 149.00 288.33 149.00 291.00 Z"/>
</g>
<g fill="#AA9E8C" fill-opacity="0.57" stroke="None">
<path d="
M 199.00 295.00 
C 199.00 297.78 198.21 300.95 198.00 303.00
C 198.04 304.22 197.98 304.31 199.00 306.00
C 198.91 305.55 199.92 303.23 200.00 302.00
C 200.17 299.35 199.79 296.65 200.00 294.00
C 200.00 294.00 199.25 293.75 199.00 294.00
C 199.00 294.00 199.00 294.50 199.00 295.00 Z"/>
</g>
<g fill="#AFA391" fill-opacity="0.37" stroke="None">
<path d="
M 150.00 302.00 
C 150.08 299.67 150.00 297.33 150.00 295.00
C 150.00 295.00 149.13 295.22 149.00 295.00
C 148.99 297.36 149.90 300.34 150.00 302.00 Z"/>
</g>
<g fill="#BFB8A4" fill-opacity="0.11" stroke="None">
<path d="
M 198.00 303.00 
C 198.21 300.95 199.00 297.78 199.00 295.00
C 197.49 297.03 197.91 300.23 198.00 303.00 Z"/>
</g>
<g fill="#958262" fill-opacity="0.89" stroke="None">
<path d="
M 200.00 302.00 
C 199.92 303.23 198.91 305.55 199.00 306.00
C 200.19 307.96 199.99 309.77 203.00 310.00
C 203.50 310.04 204.72 309.75 205.00 310.00
C 205.06 306.62 205.19 303.18 206.00 300.00
C 206.31 299.53 201.62 304.44 200.00 302.00 Z"/>
</g>
<g fill="#AEA591" fill-opacity="0.29" stroke="None">
<path d="
M 126.00 310.00 
C 128.17 312.08 131.95 320.48 136.00 320.00
C 135.75 319.75 136.21 318.39 136.00 318.00
C 135.74 317.53 133.54 315.55 133.00 315.00
C 131.01 312.97 127.26 310.69 126.00 310.00 Z"/>
</g>
<g fill="#C0B8A5" fill-opacity="0.35" stroke="None">
<path d="
M 207.00 320.00 
C 206.63 319.57 206.41 317.71 206.00 317.00
C 205.38 315.93 205.23 316.55 205.00 315.00
C 204.77 313.43 204.97 311.59 205.00 310.00
C 204.72 309.75 203.50 310.04 203.00 310.00
C 201.54 313.09 204.32 318.61 207.00 320.00 Z"/>
</g>
<g fill="#8C7B5F" fill-opacity="0.56" stroke="None">
<path d="
M 212.00 320.00 
C 217.35 318.52 218.72 314.92 222.00 311.00
C 218.23 312.42 213.91 318.38 208.00 319.00
C 208.48 320.49 210.76 320.11 212.00 320.00 Z"/>
</g>
<g fill="#877456" fill-opacity="0.70" stroke="None">
<path d="
M 136.00 318.00 
C 136.21 318.39 135.75 319.75 136.00 320.00
C 139.36 323.30 142.80 318.27 144.00 316.00
C 143.72 312.65 137.64 316.68 136.00 318.00 Z"/>
</g>
</svg>